<svg viewBox="1 1 511.99998 511.99998" xmlns="http://www.w3.org/2000/svg"><path d="m512 256c0 90.9375-47.40625 170.800781-118.867188 216.199219-5.109374 3.25-10.335937 6.3125-15.675781 9.195312-36.140625 19.53125-77.5 30.605469-121.457031 30.605469s-85.328125-11.074219-121.46875-30.605469c-5.339844-2.882812-10.566406-5.945312-15.675781-9.195312-71.449219-45.410157-118.855469-125.273438-118.855469-216.199219 0-91.019531 47.5-170.945312 119.078125-216.335938 13.476563-8.558593 27.8125-15.882812 42.839844-21.828124 29.121093-11.515626 60.863281-17.835938 94.082031-17.835938s64.960938 6.320312 94.082031 17.835938c15.027344 5.945312 29.351563 13.269531 42.832031 21.816406 71.574219 45.390625 119.085938 125.316406 119.085938 216.347656zm0 0" fill="#66ccb5"/><path d="m393.132812 42.933594v429.265625c-39.644531 25.203125-86.675781 39.800781-137.132812 39.800781s-97.5-14.597656-137.144531-39.800781v-429.265625c0-1.105469.074219-2.203125.222656-3.269532 1.585937-12.320312 12.121094-21.828124 24.878906-21.828124h224.085938c12.75 0 23.269531 9.5 24.871093 21.816406.144532 1.078125.21875 2.164062.21875 3.28125zm0 0" fill="#3b3b3b"/><path d="m377.457031 42.933594v438.460937c-36.140625 19.53125-77.5 30.605469-121.457031 30.605469s-85.328125-11.074219-121.46875-30.605469v-438.460937c0-.394532.019531-.78125.074219-1.136719l.019531-.125c.59375-4.652344 4.609375-8.160156 9.332031-8.160156h224.085938c4.714843 0 8.726562 3.507812 9.332031 8.160156.0625.46875.082031.855469.082031 1.261719zm0 0" fill="#4c4c4c"/><path d="m212.527344 85.230469c0 16.878906-13.683594 30.5625-30.5625 30.5625s-30.5625-13.683594-30.5625-30.5625c0-16.878907 13.683594-30.5625 30.5625-30.5625s30.5625 13.683593 30.5625 30.5625zm0 0" fill="#f66967"/><g fill="#797979"><path d="m195.835938 191.730469h-29.25c-9.914063 0-17.949219-8.035157-17.949219-17.949219s8.035156-17.949219 17.949219-17.949219h29.25c9.910156 0 17.945312 8.035157 17.945312 17.949219s-8.035156 17.949219-17.945312 17.949219zm0 0"/><path d="m345.40625 191.730469h-29.25c-9.914062 0-17.949219-8.035157-17.949219-17.949219s8.035157-17.949219 17.949219-17.949219h29.246094c9.914062 0 17.949218 8.035157 17.949218 17.949219s-8.035156 17.949219-17.945312 17.949219zm0 0"/><path d="m345.40625 111.085938h-29.25c-9.914062 0-17.949219-8.035157-17.949219-17.949219 0-9.910157 8.035157-17.945313 17.949219-17.945313h29.246094c9.914062 0 17.949218 8.035156 17.949218 17.945313 0 9.914062-8.035156 17.949219-17.945312 17.949219zm0 0"/><path d="m270.621094 191.730469h-29.25c-9.914063 0-17.949219-8.035157-17.949219-17.949219s8.035156-17.949219 17.949219-17.949219h29.25c9.910156 0 17.945312 8.035157 17.945312 17.949219s-8.035156 17.949219-17.945312 17.949219zm0 0"/><path d="m195.835938 246.402344h-29.25c-9.914063 0-17.949219-8.035156-17.949219-17.949219s8.035156-17.949219 17.949219-17.949219h29.25c9.910156 0 17.945312 8.035156 17.945312 17.949219 0 9.910156-8.035156 17.949219-17.945312 17.949219zm0 0"/><path d="m345.40625 246.402344h-29.25c-9.914062 0-17.949219-8.035156-17.949219-17.949219s8.035157-17.949219 17.949219-17.949219h29.246094c9.914062 0 17.949218 8.035156 17.949218 17.949219 0 9.910156-8.035156 17.949219-17.945312 17.949219zm0 0"/><path d="m270.621094 246.402344h-29.25c-9.914063 0-17.949219-8.035156-17.949219-17.949219s8.035156-17.949219 17.949219-17.949219h29.25c9.910156 0 17.945312 8.035156 17.945312 17.949219 0 9.910156-8.035156 17.949219-17.945312 17.949219zm0 0"/><path d="m195.835938 301.070312h-29.25c-9.914063 0-17.949219-8.035156-17.949219-17.949218 0-9.910156 8.035156-17.945313 17.949219-17.945313h29.25c9.910156 0 17.945312 8.035157 17.945312 17.945313 0 9.914062-8.035156 17.949218-17.945312 17.949218zm0 0"/><path d="m345.40625 301.070312h-29.25c-9.914062 0-17.949219-8.035156-17.949219-17.949218 0-9.910156 8.035157-17.945313 17.949219-17.945313h29.246094c9.914062 0 17.949218 8.035157 17.949218 17.945313 0 9.914062-8.035156 17.949218-17.945312 17.949218zm0 0"/><path d="m270.621094 301.070312h-29.25c-9.914063 0-17.949219-8.035156-17.949219-17.949218 0-9.910156 8.035156-17.945313 17.949219-17.945313h29.25c9.910156 0 17.945312 8.035157 17.945312 17.945313 0 9.914062-8.035156 17.949218-17.945312 17.949218zm0 0"/><path d="m195.835938 353.789062h-29.25c-9.914063 0-17.949219-8.035156-17.949219-17.949218 0-9.914063 8.035156-17.949219 17.949219-17.949219h29.25c9.910156 0 17.945312 8.035156 17.945312 17.949219 0 9.910156-8.035156 17.949218-17.945312 17.949218zm0 0"/><path d="m345.40625 353.789062h-29.25c-9.914062 0-17.949219-8.035156-17.949219-17.949218 0-9.914063 8.035157-17.949219 17.949219-17.949219h29.246094c9.914062 0 17.949218 8.035156 17.949218 17.949219 0 9.910156-8.035156 17.949218-17.945312 17.949218zm0 0"/><path d="m270.621094 353.789062h-29.25c-9.914063 0-17.949219-8.035156-17.949219-17.949218 0-9.914063 8.035156-17.949219 17.949219-17.949219h29.25c9.910156 0 17.945312 8.035156 17.945312 17.949219 0 9.910156-8.035156 17.949218-17.945312 17.949218zm0 0"/><path d="m195.835938 410.410156h-29.25c-9.914063 0-17.949219-8.035156-17.949219-17.945312 0-9.914063 8.035156-17.949219 17.949219-17.949219h29.25c9.910156 0 17.945312 8.035156 17.945312 17.949219 0 9.910156-8.035156 17.945312-17.945312 17.945312zm0 0"/><path d="m345.40625 410.410156h-29.25c-9.914062 0-17.949219-8.035156-17.949219-17.945312 0-9.914063 8.035157-17.949219 17.949219-17.949219h29.246094c9.914062 0 17.949218 8.035156 17.949218 17.949219 0 9.910156-8.035156 17.945312-17.945312 17.945312zm0 0"/><path d="m270.621094 410.410156h-29.25c-9.914063 0-17.949219-8.035156-17.949219-17.945312 0-9.914063 8.035156-17.949219 17.949219-17.949219h29.25c9.910156 0 17.945312 8.035156 17.945312 17.949219 0 9.910156-8.035156 17.945312-17.945312 17.945312zm0 0"/></g></svg>