<svg width="512" height="512" viewBox="0 0 512 512" fill="none" xmlns="http://www.w3.org/2000/svg">
<g clip-path="url(#clip0)">
<path d="M511 255C511 345.938 463.594 425.801 392.133 471.199C387.023 474.449 381.797 477.512 376.457 480.395C340.316 499.926 298.957 511 255 511C211.043 511 169.672 499.926 133.531 480.395C128.191 477.512 122.965 474.449 117.855 471.199C46.4062 425.789 -1 345.926 -1 255C-1 163.98 46.5 84.0547 118.078 38.6641C131.555 30.1055 145.891 22.7812 160.918 16.8359C190.039 5.32031 221.781 -1 255 -1C288.219 -1 319.961 5.32031 349.082 16.8359C364.109 22.7812 378.434 30.1055 391.914 38.6523C463.488 84.043 511 163.969 511 255Z" fill="url(#paint0_linear)"/>
<path d="M392.133 41.9336V471.199C352.488 496.402 305.457 511 255 511C204.543 511 157.5 496.402 117.855 471.199V41.9336C117.855 40.8281 117.93 39.7305 118.078 38.6641C119.664 26.3438 130.199 16.8359 142.957 16.8359H367.043C379.793 16.8359 390.313 26.3359 391.914 38.6523C392.059 39.7305 392.133 40.8164 392.133 41.9336V41.9336Z" fill="#272B45"/>
<path d="M376.457 41.9336V480.395C340.316 499.926 298.957 511 255 511C211.043 511 169.672 499.926 133.531 480.395V41.9336C133.531 41.5391 133.551 41.1523 133.605 40.7969L133.625 40.6719C134.219 36.0195 138.234 32.5117 142.957 32.5117H367.043C371.758 32.5117 375.77 36.0195 376.375 40.6719C376.438 41.1406 376.457 41.5273 376.457 41.9336V41.9336Z" fill="url(#paint1_linear)"/>
<path d="M211.527 84.2305C211.527 101.109 197.844 114.793 180.965 114.793C164.086 114.793 150.402 101.109 150.402 84.2305C150.402 67.3516 164.086 53.668 180.965 53.668C197.844 53.668 211.527 67.3516 211.527 84.2305Z" fill="url(#paint2_radial)"/>
<g opacity="0.2">
<path d="M194.836 190.73H165.586C155.672 190.73 147.637 182.695 147.637 172.781C147.637 162.867 155.672 154.832 165.586 154.832H194.836C204.746 154.832 212.781 162.867 212.781 172.781C212.781 182.695 204.746 190.73 194.836 190.73Z" fill="url(#paint3_linear)"/>
<path d="M344.406 190.73H315.156C305.242 190.73 297.207 182.695 297.207 172.781C297.207 162.867 305.242 154.832 315.156 154.832H344.402C354.316 154.832 362.352 162.867 362.352 172.781C362.352 182.695 354.316 190.73 344.406 190.73V190.73Z" fill="url(#paint4_linear)"/>
<path d="M344.406 110.086H315.156C305.242 110.086 297.207 102.051 297.207 92.1367C297.207 82.2266 305.242 74.1914 315.156 74.1914H344.402C354.316 74.1914 362.352 82.2266 362.352 92.1367C362.352 102.051 354.316 110.086 344.406 110.086V110.086Z" fill="url(#paint5_linear)"/>
<path d="M269.621 190.73H240.371C230.457 190.73 222.422 182.695 222.422 172.781C222.422 162.867 230.457 154.832 240.371 154.832H269.621C279.531 154.832 287.566 162.867 287.566 172.781C287.566 182.695 279.531 190.73 269.621 190.73Z" fill="url(#paint6_linear)"/>
<path d="M194.836 245.402H165.586C155.672 245.402 147.637 237.367 147.637 227.453C147.637 217.539 155.672 209.504 165.586 209.504H194.836C204.746 209.504 212.781 217.539 212.781 227.453C212.781 237.363 204.746 245.402 194.836 245.402Z" fill="url(#paint7_linear)"/>
<path d="M344.406 245.402H315.156C305.242 245.402 297.207 237.367 297.207 227.453C297.207 217.539 305.242 209.504 315.156 209.504H344.402C354.316 209.504 362.352 217.539 362.352 227.453C362.352 237.363 354.316 245.402 344.406 245.402V245.402Z" fill="url(#paint8_linear)"/>
<path d="M269.621 245.402H240.371C230.457 245.402 222.422 237.367 222.422 227.453C222.422 217.539 230.457 209.504 240.371 209.504H269.621C279.531 209.504 287.566 217.539 287.566 227.453C287.566 237.363 279.531 245.402 269.621 245.402Z" fill="url(#paint9_linear)"/>
<path d="M194.836 300.07H165.586C155.672 300.07 147.637 292.035 147.637 282.121C147.637 272.211 155.672 264.176 165.586 264.176H194.836C204.746 264.176 212.781 272.211 212.781 282.121C212.781 292.035 204.746 300.07 194.836 300.07Z" fill="url(#paint10_linear)"/>
<path d="M344.406 300.07H315.156C305.242 300.07 297.207 292.035 297.207 282.121C297.207 272.211 305.242 264.176 315.156 264.176H344.402C354.316 264.176 362.352 272.211 362.352 282.121C362.352 292.035 354.316 300.07 344.406 300.07V300.07Z" fill="url(#paint11_linear)"/>
<path d="M269.621 300.07H240.371C230.457 300.07 222.422 292.035 222.422 282.121C222.422 272.211 230.457 264.176 240.371 264.176H269.621C279.531 264.176 287.566 272.211 287.566 282.121C287.566 292.035 279.531 300.07 269.621 300.07Z" fill="url(#paint12_linear)"/>
<path d="M194.836 352.789H165.586C155.672 352.789 147.637 344.754 147.637 334.84C147.637 324.926 155.672 316.891 165.586 316.891H194.836C204.746 316.891 212.781 324.926 212.781 334.84C212.781 344.75 204.746 352.789 194.836 352.789V352.789Z" fill="url(#paint13_linear)"/>
<path d="M344.406 352.789H315.156C305.242 352.789 297.207 344.754 297.207 334.84C297.207 324.926 305.242 316.891 315.156 316.891H344.402C354.316 316.891 362.352 324.926 362.352 334.84C362.352 344.75 354.316 352.789 344.406 352.789V352.789Z" fill="url(#paint14_linear)"/>
<path d="M269.621 352.789H240.371C230.457 352.789 222.422 344.754 222.422 334.84C222.422 324.926 230.457 316.891 240.371 316.891H269.621C279.531 316.891 287.566 324.926 287.566 334.84C287.566 344.75 279.531 352.789 269.621 352.789V352.789Z" fill="url(#paint15_linear)"/>
<path d="M194.836 409.41H165.586C155.672 409.41 147.637 401.375 147.637 391.465C147.637 381.551 155.672 373.516 165.586 373.516H194.836C204.746 373.516 212.781 381.551 212.781 391.465C212.781 401.375 204.746 409.41 194.836 409.41Z" fill="url(#paint16_linear)"/>
<path d="M344.406 409.41H315.156C305.242 409.41 297.207 401.375 297.207 391.465C297.207 381.551 305.242 373.516 315.156 373.516H344.402C354.316 373.516 362.352 381.551 362.352 391.465C362.352 401.375 354.316 409.41 344.406 409.41V409.41Z" fill="url(#paint17_linear)"/>
<path d="M269.621 409.41H240.371C230.457 409.41 222.422 401.375 222.422 391.465C222.422 381.551 230.457 373.516 240.371 373.516H269.621C279.531 373.516 287.566 381.551 287.566 391.465C287.566 401.375 279.531 409.41 269.621 409.41Z" fill="url(#paint18_linear)"/>
</g>
</g>
<defs>
<linearGradient id="paint0_linear" x1="-1" y1="-1" x2="612.921" y2="309.447" gradientUnits="userSpaceOnUse">
<stop stop-color="#494F74"/>
<stop offset="1" stop-color="#3A3F5E"/>
</linearGradient>
<linearGradient id="paint1_linear" x1="133.531" y1="32.5117" x2="476.682" y2="120.609" gradientUnits="userSpaceOnUse">
<stop stop-color="#494F74"/>
<stop offset="1" stop-color="#3A3F5E"/>
</linearGradient>
<radialGradient id="paint2_radial" cx="0" cy="0" r="1" gradientUnits="userSpaceOnUse" gradientTransform="translate(181 84) rotate(-155.376) scale(26.4008 24.9558)">
<stop offset="1" stop-color="#855CFF"/>
</radialGradient>
<linearGradient id="paint3_linear" x1="183.828" y1="190.73" x2="170.678" y2="147.778" gradientUnits="userSpaceOnUse">
<stop stop-color="#D2D6EF"/>
<stop offset="1" stop-color="#9299C2"/>
</linearGradient>
<linearGradient id="paint4_linear" x1="333.398" y1="190.73" x2="320.249" y2="147.778" gradientUnits="userSpaceOnUse">
<stop stop-color="#D2D6EF"/>
<stop offset="1" stop-color="#9299C2"/>
</linearGradient>
<linearGradient id="paint5_linear" x1="333.398" y1="110.086" x2="320.251" y2="67.1373" gradientUnits="userSpaceOnUse">
<stop stop-color="#D2D6EF"/>
<stop offset="1" stop-color="#9299C2"/>
</linearGradient>
<linearGradient id="paint6_linear" x1="258.613" y1="190.73" x2="245.464" y2="147.778" gradientUnits="userSpaceOnUse">
<stop stop-color="#D2D6EF"/>
<stop offset="1" stop-color="#9299C2"/>
</linearGradient>
<linearGradient id="paint7_linear" x1="183.828" y1="245.402" x2="170.678" y2="202.45" gradientUnits="userSpaceOnUse">
<stop stop-color="#D2D6EF"/>
<stop offset="1" stop-color="#9299C2"/>
</linearGradient>
<linearGradient id="paint8_linear" x1="333.398" y1="245.402" x2="320.249" y2="202.45" gradientUnits="userSpaceOnUse">
<stop stop-color="#D2D6EF"/>
<stop offset="1" stop-color="#9299C2"/>
</linearGradient>
<linearGradient id="paint9_linear" x1="258.613" y1="245.402" x2="245.464" y2="202.45" gradientUnits="userSpaceOnUse">
<stop stop-color="#D2D6EF"/>
<stop offset="1" stop-color="#9299C2"/>
</linearGradient>
<linearGradient id="paint10_linear" x1="183.828" y1="300.07" x2="170.681" y2="257.122" gradientUnits="userSpaceOnUse">
<stop stop-color="#D2D6EF"/>
<stop offset="1" stop-color="#9299C2"/>
</linearGradient>
<linearGradient id="paint11_linear" x1="333.398" y1="300.07" x2="320.251" y2="257.122" gradientUnits="userSpaceOnUse">
<stop stop-color="#D2D6EF"/>
<stop offset="1" stop-color="#9299C2"/>
</linearGradient>
<linearGradient id="paint12_linear" x1="258.613" y1="300.07" x2="245.466" y2="257.122" gradientUnits="userSpaceOnUse">
<stop stop-color="#D2D6EF"/>
<stop offset="1" stop-color="#9299C2"/>
</linearGradient>
<linearGradient id="paint13_linear" x1="183.828" y1="352.789" x2="170.678" y2="309.837" gradientUnits="userSpaceOnUse">
<stop stop-color="#D2D6EF"/>
<stop offset="1" stop-color="#9299C2"/>
</linearGradient>
<linearGradient id="paint14_linear" x1="333.398" y1="352.789" x2="320.249" y2="309.837" gradientUnits="userSpaceOnUse">
<stop stop-color="#D2D6EF"/>
<stop offset="1" stop-color="#9299C2"/>
</linearGradient>
<linearGradient id="paint15_linear" x1="258.613" y1="352.789" x2="245.464" y2="309.837" gradientUnits="userSpaceOnUse">
<stop stop-color="#D2D6EF"/>
<stop offset="1" stop-color="#9299C2"/>
</linearGradient>
<linearGradient id="paint16_linear" x1="183.828" y1="409.41" x2="170.681" y2="366.462" gradientUnits="userSpaceOnUse">
<stop stop-color="#D2D6EF"/>
<stop offset="1" stop-color="#9299C2"/>
</linearGradient>
<linearGradient id="paint17_linear" x1="333.398" y1="409.41" x2="320.251" y2="366.462" gradientUnits="userSpaceOnUse">
<stop stop-color="#D2D6EF"/>
<stop offset="1" stop-color="#9299C2"/>
</linearGradient>
<linearGradient id="paint18_linear" x1="258.613" y1="409.41" x2="245.466" y2="366.462" gradientUnits="userSpaceOnUse">
<stop stop-color="#D2D6EF"/>
<stop offset="1" stop-color="#9299C2"/>
</linearGradient>
<clipPath id="clip0">
<rect width="512" height="512" fill="white"/>
</clipPath>
</defs>
</svg>
